<svg id="Laag_1" data-name="Laag 1" xmlns="http://www.w3.org/2000/svg" viewBox="0 0 69.38 69.34"><defs><style>.cls-1{fill:none;stroke:#000;stroke-linejoin:round;}.cls-2{isolation:isolate;font-size:12.1px;font-family:SpaceMono-Regular, Space Mono;}</style></defs><title>AI icon</title><path class="cls-1" d="M28.08,27.86V9.12H24.92v-4c5.48,0,7.81,2.32,7.81,6.74v9.48" transform="translate(-0.5 -4.51)"/><path class="cls-1" d="M24.92,5.15c-3.41,0-5.26,3.12-5.68,5.44a10.26,10.26,0,0,1,3.58,2.93h5.26" transform="translate(-0.5 -4.51)"/><path class="cls-1" d="M19.24,10.59C16,9.78,13.49,10.27,11.52,12,8.7,14.4,8.18,18.15,9.13,21.54c1.78,4,5,5.38,9,5.27v5.86h4.88" transform="translate(-0.5 -4.51)"/><path class="cls-1" d="M9.07,21.37C3.85,23.44,1.74,30.6,7.64,35" transform="translate(-0.5 -4.51)"/><path class="cls-1" d="M5,31.84C.11,36.41-.57,42.18,4.49,46.17c5.26,2.74,8.92,1.18,10.11-4.88L18,39.82H23" transform="translate(-0.5 -4.51)"/><path class="cls-1" d="M4.35,46.08C1.54,51.06,2,56.29,8.48,58.4c1.06-3.58,3.37-6.53,7.59-6.74L18.17,47h4.88" transform="translate(-0.5 -4.51)"/><path class="cls-1" d="M8.4,58.36C7,70,20.07,72.54,24.07,64.73" transform="translate(-0.5 -4.51)"/><path class="cls-1" d="M19.91,68.64c2.27,7.09,12.79,5.61,12.79-1.34V60.56l-1.05-3.37V51.87" transform="translate(-0.5 -4.51)"/><path class="cls-1" d="M18.81,60.5a2.56,2.56,0,0,1-2.34,2.75h-.4a2.55,2.55,0,0,1-2.74-2.34,2.81,2.81,0,0,1,0-.41,2.65,2.65,0,0,1,2.57-2.73h.17a2.54,2.54,0,0,1,2.74,2.32,2.8,2.8,0,0,1,0,.41h9.26V51.87" transform="translate(-0.5 -4.51)"/><path class="cls-1" d="M37.76,64.51v2.11A7,7,0,0,0,45,73.36V62H35.23V51.87" transform="translate(-0.5 -4.51)"/><path class="cls-1" d="M42.39,51.87v5.05h5.27l.22,8a8.31,8.31,0,0,0,3.37,2.93,8.1,8.1,0,0,0,9.48-3.37c1.25-2.25,1.2-4.76.63-7.38a9.3,9.3,0,0,0-4-4.88" transform="translate(-0.5 -4.51)"/><path class="cls-1" d="M45,73.36c3.26-.28,5.57-1.82,6.32-5.48" transform="translate(-0.5 -4.51)"/><line class="cls-1" x1="38.32" y1="47.35" x2="38.32" y2="54.36"/><polyline class="cls-1" points="24.84 63.15 29.26 63.15 29.26 58.73"/><path class="cls-1" d="M61.3,57a6.68,6.68,0,0,0,4.89-6.78,9.26,9.26,0,0,0-.82-4,9.39,9.39,0,0,0-2.52-2.73H47.22" transform="translate(-0.5 -4.51)"/><polyline class="cls-1" points="65.68 45.66 61.67 45.66 61.67 41.66 56.23 41.66"/><path class="cls-1" d="M65.44,46.35a7.08,7.08,0,0,0,3.91-6.5H47.26" transform="translate(-0.5 -4.51)"/><path class="cls-1" d="M69.37,39.85a9.82,9.82,0,0,0-3.16-7.58c-1.79-1.79-7.58-1.47-7.81,0l-1.27,4H47.26" transform="translate(-0.5 -4.51)"/><path class="cls-1" d="M66.38,32.36c3.91-7,.08-9.76-4.59-12.13a7.74,7.74,0,0,1-7.37,6.53l-2.11,5.86H47.26" transform="translate(-0.5 -4.51)"/><path class="cls-1" d="M61.79,20.28C64.31,10,52.1,4.48,46.41,13.94" transform="translate(-0.5 -4.51)"/><path class="cls-1" d="M50.81,9.82C47.88,2.16,37.76,4.48,37.76,11v7l1.06,3.16v6.74" transform="translate(-0.5 -4.51)"/><polyline class="cls-1" points="34.74 23.35 34.74 12.36 32.22 12.36"/><line class="cls-1" x1="31.16" y1="23.35" x2="31.16" y2="18.29"/><polyline class="cls-1" points="8.63 23.77 8.63 27.77 12.84 27.77"/><path class="cls-1" d="M23,36.28H11.65v4.64H7.84c0-2.53-3.37-2.11-3.37,0a1.69,1.69,0,0,0,3.37.26v-.26" transform="translate(-0.5 -4.51)"/><line class="cls-1" x1="22.72" y1="38.93" x2="17.45" y2="38.93"/><path class="cls-1" d="M22.83,27.44V19H19.44c0-4.21-5.68-3.79-5.68,0s5.68,3.79,5.68,0" transform="translate(-0.5 -4.51)"/><path class="cls-1" d="M24.92,51.87V54.4H22.39c0-2.11-3.37-2.11-3.37,0a1.7,1.7,0,1,0,3.37.44,1.62,1.62,0,0,0,0-.44" transform="translate(-0.5 -4.51)"/><path class="cls-1" d="M53.74,56.08c3.59,0,3.59,5.69,0,5.69-3.79,0-3.79-5.69,0-5.69V47H47.25" transform="translate(-0.5 -4.51)"/><line class="cls-1" x1="48.86" y1="47.39" x2="53.24" y2="47.39"/><path class="cls-1" d="M46.83,22.38H54V19c3.58,0,3.58-5.48,0-5.48A2.74,2.74,0,1,0,53.66,19H54" transform="translate(-0.5 -4.51)"/><path class="cls-1" d="M42.4,27.86V15.44a2,2,0,1,0,0-4h0c-2.53,0-2.93,4,0,4" transform="translate(-0.5 -4.51)"/><rect class="cls-1" x="24.51" y="24.92" width="20.64" height="20.65"/><text class="cls-2" transform="translate(27.43 38.51)">AI</text></svg>