<svg id="SVG" xmlns="http://www.w3.org/2000/svg" xmlns:xlink="http://www.w3.org/1999/xlink" viewBox="0 0 367 95.91"><defs><style>.cls-1{fill:url(#Naamloos_verloop_99);}</style><linearGradient id="Naamloos_verloop_99" x1="190.24" y1="7.22" x2="190.24" y2="103.13" gradientUnits="userSpaceOnUse"><stop offset="0" stop-color="#5900c9"/><stop offset="0.14" stop-color="#2c00a3"/><stop offset="0.27" stop-color="#0c0088"/><stop offset="0.33" stop-color="#00007e"/><stop offset="0.39" stop-color="#000072"/><stop offset="0.51" stop-color="#00005b"/><stop offset="0.64" stop-color="#00004b"/><stop offset="0.79" stop-color="#000042"/><stop offset="1" stop-color="#00003f"/></linearGradient></defs><title>BasMaat_Brand</title><path class="cls-1" d="M373.74,62.21H6.74v3.55h367ZM32.67,52.91h4.41V13H32.67V7.22H53.46a19.18,19.18,0,0,1,6.51,1A14.36,14.36,0,0,1,64.74,11a11.26,11.26,0,0,1,2.94,4.22,14.16,14.16,0,0,1,1,5.33v.88A11,11,0,0,1,68,25.36a10.49,10.49,0,0,1-1.84,3.16,11.69,11.69,0,0,1-2.75,2.39A12.93,12.93,0,0,1,60,32.41v.88a12.41,12.41,0,0,1,6.17,3.93,10.48,10.48,0,0,1,2.5,7.09v.88a14.16,14.16,0,0,1-1,5.33,11.64,11.64,0,0,1-2.94,4.26A14.08,14.08,0,0,1,60,57.61a18.93,18.93,0,0,1-6.51,1H32.67ZM43.25,30h10a10.13,10.13,0,0,0,7-2.28,7.89,7.89,0,0,0,2.57-6.24V21a7.17,7.17,0,0,0-2.71-5.92A11,11,0,0,0,53,13H43.25Zm0,22.92H53a11,11,0,0,0,7.06-2.17,7.23,7.23,0,0,0,2.71-6v-.44A8,8,0,0,0,60.22,38a10.05,10.05,0,0,0-7-2.31h-10Zm59.36-.44h-.88a11.94,11.94,0,0,1-4.89,5.43,13.12,13.12,0,0,1-6.57,1.77,18.12,18.12,0,0,1-6.69-1.22,15.07,15.07,0,0,1-5.4-3.6A16.92,16.92,0,0,1,74.55,49a22.32,22.32,0,0,1-1.32-8V39.83a22.12,22.12,0,0,1,1.32-7.93,17,17,0,0,1,3.63-5.84,15.85,15.85,0,0,1,5.4-3.64,17.34,17.34,0,0,1,6.54-1.25,14,14,0,0,1,6.8,1.66,11.62,11.62,0,0,1,4.81,5.1h.88V22.2h5.73V51.14c0,1.47.66,2.21,2,2.21h1.84v5.29h-3.89A5.44,5.44,0,0,1,104.19,57a5.64,5.64,0,0,1-1.58-4.11ZM90.86,54.23a11.69,11.69,0,0,0,4.73-.95,10.48,10.48,0,0,0,3.71-2.72,13.09,13.09,0,0,0,2.43-4.23,16.05,16.05,0,0,0,.88-5.47V40a15.85,15.85,0,0,0-.88-5.4,12.65,12.65,0,0,0-2.46-4.22,11.34,11.34,0,0,0-3.75-2.76,11.07,11.07,0,0,0-4.66-1,11.49,11.49,0,0,0-4.71.95,11.33,11.33,0,0,0-3.71,2.69A12.27,12.27,0,0,0,80,34.43a16.1,16.1,0,0,0-.88,5.4V41q0,6.24,3.27,9.73A11.09,11.09,0,0,0,90.86,54.23ZM125,31.6a4.45,4.45,0,0,0,2.24,4q2.23,1.41,8.19,1.84,6.39.51,9.73,3.05a8.69,8.69,0,0,1,3.34,7.38v.44a10.27,10.27,0,0,1-1.06,4.74,10.42,10.42,0,0,1-2.94,3.56A13,13,0,0,1,140,58.89a23.2,23.2,0,0,1-13.15-.36,15.21,15.21,0,0,1-5.06-3,12.46,12.46,0,0,1-3-4.26,14.31,14.31,0,0,1-1.18-4.82L123,45.12a9.72,9.72,0,0,0,3.23,6.72,11.12,11.12,0,0,0,7.64,2.54,11.91,11.91,0,0,0,6.5-1.58,5,5,0,0,0,2.46-4.45,4.62,4.62,0,0,0-2.42-4.4q-2.43-1.34-7.86-1.69-6.31-.45-9.7-2.94a8.5,8.5,0,0,1-3.38-7.27V31.6a9,9,0,0,1,1.1-4.51,10,10,0,0,1,3-3.27,13.78,13.78,0,0,1,4.22-2,18.17,18.17,0,0,1,4.93-.66,18.41,18.41,0,0,1,6.31,1,14.73,14.73,0,0,1,4.56,2.58,11.32,11.32,0,0,1,2.83,3.63,14.2,14.2,0,0,1,1.28,4.12l-5.43,1.32a7.8,7.8,0,0,0-2.83-5.51,10,10,0,0,0-6.43-2,13.28,13.28,0,0,0-3,.34,8.67,8.67,0,0,0-2.53,1,5.37,5.37,0,0,0-1.76,1.65A4.07,4.07,0,0,0,125,31.6ZM197,7.22h11.75L215.67,56h.88l6.9-48.77h11.76V58.64h-5.73V9.86h-.88l-6.91,48.78H210.52l-6.9-48.78h-.88V58.64H197Zm70.74,45.25h-.88A11.94,11.94,0,0,1,262,57.9a13.12,13.12,0,0,1-6.57,1.77,18.12,18.12,0,0,1-6.69-1.22,15.07,15.07,0,0,1-5.4-3.6A16.92,16.92,0,0,1,239.69,49a22.32,22.32,0,0,1-1.32-8V39.83a22.12,22.12,0,0,1,1.32-7.93,17,17,0,0,1,3.63-5.84,15.85,15.85,0,0,1,5.4-3.64,17.34,17.34,0,0,1,6.54-1.25,14,14,0,0,1,6.8,1.66,11.62,11.62,0,0,1,4.81,5.1h.88V22.2h5.73V51.14c0,1.47.66,2.21,2,2.21h1.84v5.29h-3.89A5.44,5.44,0,0,1,269.33,57a5.64,5.64,0,0,1-1.58-4.11ZM256,54.23a11.69,11.69,0,0,0,4.73-.95,10.48,10.48,0,0,0,3.71-2.72,13.09,13.09,0,0,0,2.43-4.23,16.05,16.05,0,0,0,.88-5.47V40a15.85,15.85,0,0,0-.88-5.4,12.65,12.65,0,0,0-2.46-4.22,11.24,11.24,0,0,0-3.75-2.76,11.07,11.07,0,0,0-4.66-1,11.44,11.44,0,0,0-4.7.95,11.13,11.13,0,0,0-3.71,2.69,12.13,12.13,0,0,0-2.47,4.18,16.1,16.1,0,0,0-.88,5.4V41q0,6.24,3.27,9.73A11.09,11.09,0,0,0,256,54.23Zm53-1.76h-.89a11.87,11.87,0,0,1-4.88,5.43,13.13,13.13,0,0,1-6.58,1.77A18.07,18.07,0,0,1,290,58.45a14.89,14.89,0,0,1-5.4-3.6A16.94,16.94,0,0,1,281,49a22.32,22.32,0,0,1-1.32-8V39.83A22.12,22.12,0,0,1,281,31.9a17,17,0,0,1,3.64-5.84,15.66,15.66,0,0,1,5.4-3.64,17.3,17.3,0,0,1,6.54-1.25,13.91,13.91,0,0,1,6.79,1.66,11.57,11.57,0,0,1,4.81,5.1H309V22.2h5.73V51.14c0,1.47.66,2.21,2,2.21h1.84v5.29h-3.9A5.43,5.43,0,0,1,310.62,57,5.6,5.6,0,0,1,309,52.91Zm-11.76,1.76a11.73,11.73,0,0,0,4.74-.95,10.66,10.66,0,0,0,3.71-2.72,12.9,12.9,0,0,0,2.42-4.23,16.05,16.05,0,0,0,.89-5.47V40a15.85,15.85,0,0,0-.89-5.4,12.32,12.32,0,0,0-2.46-4.22,11.12,11.12,0,0,0-8.41-3.75,11.47,11.47,0,0,0-4.7.95,11.23,11.23,0,0,0-3.71,2.69,12.27,12.27,0,0,0-2.46,4.18,15.85,15.85,0,0,0-.88,5.4V41q0,6.24,3.27,9.73A11.07,11.07,0,0,0,297.28,54.23Zm25.35-32h11.46v-15h5.73v15h14.1v5.29h-14.1V51.14c0,1.47.66,2.21,2,2.21h10.36v5.29H339.74A5.43,5.43,0,0,1,335.67,57a5.6,5.6,0,0,1-1.58-4.11V27.49H322.63ZM111.07,80.63a5.61,5.61,0,0,0-.6-2.64,5.43,5.43,0,0,0-1.6-1.89A7.56,7.56,0,0,0,106.54,75a9.71,9.71,0,0,0-2.77-.39,8.61,8.61,0,0,0-2.41.33,7.12,7.12,0,0,0-2,.94,4.67,4.67,0,0,0-1.42,1.52,4,4,0,0,0-.53,2.08v.27a4.13,4.13,0,0,0,.53,2.17,4.43,4.43,0,0,0,1.56,1.54,9.17,9.17,0,0,0,2.57,1,32,32,0,0,0,3.6.73q4.83.75,7.12,2.83A7.24,7.24,0,0,1,115,93.64v.52a9.5,9.5,0,0,1-.68,3.63,7.59,7.59,0,0,1-2,2.83,9.43,9.43,0,0,1-3.32,1.85,14.43,14.43,0,0,1-4.57.66,14.61,14.61,0,0,1-5.2-.86,10.5,10.5,0,0,1-3.78-2.37,10.23,10.23,0,0,1-2.31-3.56,12.19,12.19,0,0,1-.79-4.46V90.56H96v1q0,4,2.22,6.07a8.82,8.82,0,0,0,6.17,2,7.67,7.67,0,0,0,5.17-1.52,5.09,5.09,0,0,0,1.73-4V93.9a4.25,4.25,0,0,0-1.78-3.69,13.45,13.45,0,0,0-5.78-1.85,21.77,21.77,0,0,1-4.19-.94,10.81,10.81,0,0,1-3.19-1.67,7.07,7.07,0,0,1-2-2.48,7.78,7.78,0,0,1-.7-3.43v-.53A7.2,7.2,0,0,1,94.42,76a7.87,7.87,0,0,1,2.08-2.6,9.72,9.72,0,0,1,3.21-1.69,13.65,13.65,0,0,1,4.11-.59,13.34,13.34,0,0,1,4.63.75,10.31,10.31,0,0,1,3.45,2A8.11,8.11,0,0,1,114,76.83a8.8,8.8,0,0,1,.73,3.54v1.84h-3.69Zm6.63,3.08q0-6,2.86-9.28a11.25,11.25,0,0,1,15.9,0q2.86,3.3,2.86,9.28v6.85q0,6.15-2.86,9.36a11.45,11.45,0,0,1-15.9,0q-2.86-3.21-2.86-9.36Zm10.81,16a6.18,6.18,0,0,0,5.34-2.44c1.19-1.62,1.78-4,1.78-7V84a11.79,11.79,0,0,0-1.78-6.81,6.8,6.8,0,0,0-10.68,0A11.87,11.87,0,0,0,121.39,84V90.3c0,3,.6,5.34,1.78,7A6.18,6.18,0,0,0,128.51,99.7Zm15.42-27.95h18.9v3.43H147.62v10.2h14.94V88.8H147.62v13.71h-3.69Zm23.16,0h21.62v3.43h-9v27.33h-3.69V75.18h-9Zm45.34,30.76h-6.72l-2.86-29.17h-.52l-2.86,29.17h-6.72l-3.12-30.76H193l2.94,29.18h.53l2.77-29.18H206l2.77,29.18h.53l2.94-29.18h3.34Zm21.44-7.64H220.69l-2.24,7.64H214.5l9.31-30.76h6.94l9.32,30.76h-3.95ZM227,73.34l-5.32,18.1h11.16l-5.31-18.1Zm34.58,29.17h-3.69V92.23a2.64,2.64,0,0,0-.53-1.76,2.33,2.33,0,0,0-1.84-.61H246v12.65h-3.69V71.75h11a11.49,11.49,0,0,1,4.13.68,8.56,8.56,0,0,1,2.92,1.83,7.41,7.41,0,0,1,1.76,2.66,8.55,8.55,0,0,1,.59,3.18v1.32a7,7,0,0,1-.94,3.43,6.17,6.17,0,0,1-2.92,2.63V88a3.12,3.12,0,0,1,2.81,3.43ZM246,86.43h6.85a6.87,6.87,0,0,0,4.64-1.34A5,5,0,0,0,259,81.16v-.79a4.91,4.91,0,0,0-1.51-3.76,6.58,6.58,0,0,0-4.64-1.43H246Zm21.4-14.68H286v3.43H271.05v10.2h14.67V88.8H271.05V99.08h15.2v3.43H267.36Z" transform="translate(-6.74 -7.22)"/></svg>